<svg xmlns="http://www.w3.org/2000/svg" viewBox="0 0 1040 2400" font-family="-apple-system,Segoe UI,Inter,Roboto,sans-serif">
  <defs>
    <linearGradient id="card" x1="0" y1="0" x2="0" y2="1">
      <stop offset="0" stop-color="#0b0d14"/><stop offset="1" stop-color="#080a11"/>
    </linearGradient>
    <linearGradient id="gate" x1="0" y1="0" x2="0" y2="1">
      <stop offset="0" stop-color="#15120a"/><stop offset="1" stop-color="#0d0b07"/>
    </linearGradient>
    <marker id="arr" markerUnits="userSpaceOnUse" markerWidth="13" markerHeight="13" refX="9" refY="6" orient="auto">
      <path d="M0,0 L11,6 L0,12 Z" fill="#9aa3b8"/>
    </marker>
    <marker id="arrR" markerUnits="userSpaceOnUse" markerWidth="13" markerHeight="13" refX="9" refY="6" orient="auto">
      <path d="M0,0 L11,6 L0,12 Z" fill="#ff2d8e"/>
    </marker>
    <marker id="arrG" markerUnits="userSpaceOnUse" markerWidth="13" markerHeight="13" refX="9" refY="6" orient="auto">
      <path d="M0,0 L11,6 L0,12 Z" fill="#c6ff3a"/>
    </marker>
  </defs>

  <rect x="0" y="0" width="1040" height="2400" fill="#06070b"/>

  <!-- title -->
  <text x="48" y="50" fill="#00e5ff" font-size="13" letter-spacing="4">RATIONALDEV · AI-FIRST SDLC · izi</text>
  <text x="48" y="82" fill="#e8ecf4" font-size="27" font-weight="700">Целевой процесс: SemVer-вертикали → CI → канарейка</text>
  <text x="48" y="108" fill="#7c869b" font-size="13.5">Команда = человек + машина · нет тестовых сред · 3 человеческих гейта · 4 золотых сигнала</text>

  <!-- 1. Требование -->
  <rect x="320" y="140" width="400" height="48" rx="24" fill="none" stroke="#1c2233"/>
  <text x="520" y="169" fill="#e8ecf4" font-size="14.5" text-anchor="middle">Требование сформулировано · конец Discovery</text>
  <line x1="520" y1="190" x2="520" y2="232" stroke="#9aa3b8" stroke-width="3" marker-end="url(#arr)"/>

  <!-- 2. Фронт-дор -->
  <rect x="270" y="234" width="500" height="78" rx="12" fill="url(#card)" stroke="#1c2233"/>
  <text x="292" y="262" fill="#00e5ff" font-size="15" font-weight="700">ФРОНТ-ДОР · @gilb (Gilb)</text>
  <text x="292" y="284" fill="#e8ecf4" font-size="12.5">сырое требование → измеримое BRD</text>
  <text x="292" y="303" fill="#9aa3b8" font-size="12.5">открытые вопросы — оператору по одному</text>
  <line x1="520" y1="312" x2="520" y2="354" stroke="#9aa3b8" stroke-width="3" marker-end="url(#arr)"/>

  <!-- 3. Триаж -->
  <rect x="230" y="356" width="580" height="86" rx="12" fill="url(#card)" stroke="#00e5ff"/>
  <text x="252" y="384" fill="#00e5ff" font-size="15" font-weight="700">ТРИАЖ · @wirth-triage (Wirth) — ВЕС по SemVer 2.0.0</text>
  <text x="252" y="406" fill="#e8ecf4" font-size="12.5">ось: обратная совместимость документированного контракта</text>
  <text x="252" y="426" fill="#9aa3b8" font-size="12">epic / unclear → STOP оператору</text>
  <line x1="810" y1="399" x2="834" y2="399" stroke="#ff2d8e" stroke-width="3" marker-end="url(#arrR)"/>
  <rect x="838" y="372" width="176" height="54" rx="10" fill="none" stroke="#ff2d8e"/>
  <text x="926" y="404" fill="#ff2d8e" font-size="13" text-anchor="middle">STOP → оператор</text>

  <!-- 4. Веер пяти вертикалей -->
  <line x1="520" y1="442" x2="520" y2="482" stroke="#9aa3b8" stroke-width="3"/>
  <line x1="120" y1="482" x2="920" y2="482" stroke="#9aa3b8" stroke-width="3"/>
  <line x1="120" y1="482" x2="120" y2="496" stroke="#9aa3b8" stroke-width="3" marker-end="url(#arr)"/>
  <line x1="320" y1="482" x2="320" y2="496" stroke="#9aa3b8" stroke-width="3" marker-end="url(#arr)"/>
  <line x1="520" y1="482" x2="520" y2="496" stroke="#9aa3b8" stroke-width="3" marker-end="url(#arr)"/>
  <line x1="720" y1="482" x2="720" y2="496" stroke="#9aa3b8" stroke-width="3" marker-end="url(#arr)"/>
  <line x1="920" y1="482" x2="920" y2="496" stroke="#9aa3b8" stroke-width="3" marker-end="url(#arr)"/>

  <!-- вертикаль greenfield -->
  <rect x="28" y="500" width="184" height="204" rx="12" fill="url(#card)" stroke="#1c2233"/>
  <text x="120" y="528" fill="#00e5ff" font-size="15" font-weight="700" text-anchor="middle">greenfield</text>
  <rect x="60" y="542" width="120" height="26" rx="13" fill="none" stroke="#c6ff3a"/>
  <text x="120" y="560" fill="#c6ff3a" font-size="12" text-anchor="middle">транк 1.0.0</text>
  <g font-size="11.5" text-anchor="middle" fill="#9aa3b8">
    <text x="120" y="592">FRD → срезы → use-case</text>
    <text x="120" y="610">ЗАМОРОЗКА контракта</text>
    <text x="120" y="628">дерево модулей → README</text>
    <text x="120" y="646">полный дизайн-пакет</text>
    <text x="120" y="664">+ scaffold</text>
  </g>
  <text x="120" y="686" fill="#c6ff3a" font-size="11.5" text-anchor="middle">канарейка: да</text>

  <!-- вертикаль patch -->
  <rect x="228" y="500" width="184" height="204" rx="12" fill="url(#card)" stroke="#1c2233"/>
  <text x="320" y="528" fill="#00e5ff" font-size="15" font-weight="700" text-anchor="middle">patch</text>
  <rect x="260" y="542" width="120" height="26" rx="13" fill="none" stroke="#c6ff3a"/>
  <text x="320" y="560" fill="#c6ff3a" font-size="12" text-anchor="middle">транк Z+1</text>
  <g font-size="11.5" text-anchor="middle" fill="#9aa3b8">
    <text x="320" y="592">change-delta +</text>
    <text x="320" y="610">discriminating</text>
    <text x="320" y="628">контракт НЕ трогается</text>
    <text x="320" y="646">чинится секрет</text>
    <text x="320" y="664">существующего модуля</text>
  </g>
  <text x="320" y="686" fill="#c6ff3a" font-size="11.5" text-anchor="middle">канарейка: да</text>

  <!-- вертикаль minor -->
  <rect x="428" y="500" width="184" height="204" rx="12" fill="url(#card)" stroke="#1c2233"/>
  <text x="520" y="528" fill="#00e5ff" font-size="15" font-weight="700" text-anchor="middle">minor</text>
  <rect x="460" y="542" width="120" height="26" rx="13" fill="none" stroke="#c6ff3a"/>
  <text x="520" y="560" fill="#c6ff3a" font-size="12" text-anchor="middle">транк Y+1.0</text>
  <g font-size="11.5" text-anchor="middle" fill="#9aa3b8">
    <text x="520" y="592">аддитивная эволюция</text>
    <text x="520" y="610">контракта</text>
    <text x="520" y="628">--require-additive</text>
    <text x="520" y="646">= 0 breaking</text>
    <text x="520" y="664">тоггл default OFF</text>
  </g>
  <text x="520" y="686" fill="#c6ff3a" font-size="11.5" text-anchor="middle">канарейка: да</text>

  <!-- вертикаль major -->
  <rect x="628" y="500" width="184" height="204" rx="12" fill="url(#card)" stroke="#1c2233"/>
  <text x="720" y="528" fill="#00e5ff" font-size="15" font-weight="700" text-anchor="middle">major</text>
  <rect x="660" y="542" width="120" height="26" rx="13" fill="none" stroke="#c6ff3a"/>
  <text x="720" y="560" fill="#c6ff3a" font-size="12" text-anchor="middle">транк X+1.0.0</text>
  <g font-size="11.5" text-anchor="middle" fill="#9aa3b8">
    <text x="720" y="592">редизайн + миграция</text>
    <text x="720" y="610">breaking-список</text>
    <text x="720" y="628">в тело PR</text>
    <text x="720" y="646">миграционный путь</text>
    <text x="720" y="664">обязателен</text>
  </g>
  <text x="720" y="686" fill="#c6ff3a" font-size="11.5" text-anchor="middle">канарейка: да</text>

  <!-- вертикаль chore -->
  <rect x="828" y="500" width="184" height="204" rx="12" fill="url(#card)" stroke="#ff2d8e"/>
  <text x="920" y="528" fill="#00e5ff" font-size="15" font-weight="700" text-anchor="middle">chore</text>
  <rect x="860" y="542" width="120" height="26" rx="13" fill="none" stroke="#ff2d8e"/>
  <text x="920" y="560" fill="#ff2d8e" font-size="12" text-anchor="middle">транк: no-bump</text>
  <g font-size="11.5" text-anchor="middle" fill="#9aa3b8">
    <text x="920" y="592">CHORE-PLAN.md</text>
    <text x="920" y="610">(@wirth-planner)</text>
    <text x="920" y="628">файлы · команда</text>
    <text x="920" y="646">верификации · откат</text>
    <text x="920" y="664">без дизайна и компонентных</text>
  </g>
  <text x="920" y="686" fill="#ff2d8e" font-size="11.5" text-anchor="middle">канарейки НЕТ</text>

  <!-- minor: найден breaking → ре-триаж -->
  <path d="M428,704 L428,718 L12,718 L12,399 L226,399" fill="none" stroke="#ff2d8e" stroke-width="2.5" stroke-dasharray="5 5" marker-end="url(#arrR)"/>
  <text x="440" y="714" fill="#ff2d8e" font-size="10.5">найден breaking → ре-триаж как major</text>

  <!-- сходимость четырёх весов в тикеты -->
  <line x1="120" y1="704" x2="120" y2="740" stroke="#9aa3b8" stroke-width="3"/>
  <line x1="320" y1="704" x2="320" y2="740" stroke="#9aa3b8" stroke-width="3"/>
  <line x1="520" y1="704" x2="520" y2="740" stroke="#9aa3b8" stroke-width="3"/>
  <line x1="720" y1="704" x2="720" y2="740" stroke="#9aa3b8" stroke-width="3"/>
  <line x1="120" y1="740" x2="720" y2="740" stroke="#9aa3b8" stroke-width="3"/>
  <line x1="520" y1="740" x2="520" y2="756" stroke="#9aa3b8" stroke-width="3" marker-end="url(#arr)"/>

  <!-- chore минует тикеты и ревью плана -->
  <path d="M920,704 L920,724 L1006,724 L1006,1105 L796,1105" fill="none" stroke="#ff2d8e" stroke-width="2.5" marker-end="url(#arrR)"/>
  <text x="998" y="748" fill="#ff2d8e" font-size="10.5" text-anchor="end">chore → сразу Gate #1</text>
  <text x="998" y="764" fill="#9aa3b8" font-size="10.5" text-anchor="end">без тикетов и ревью плана</text>

  <!-- 5. Тикеты -->
  <rect x="270" y="758" width="500" height="64" rx="12" fill="url(#card)" stroke="#1c2233"/>
  <text x="292" y="786" fill="#00e5ff" font-size="15" font-weight="700">ТИКЕТЫ · @wirth-ticketer (Wirth)</text>
  <text x="292" y="808" fill="#9aa3b8" font-size="12.5">покрытие по весу; тип: scaffold | component | module</text>
  <line x1="520" y1="822" x2="520" y2="856" stroke="#9aa3b8" stroke-width="3" marker-end="url(#arr)"/>

  <!-- 6. План -->
  <rect x="270" y="858" width="500" height="64" rx="12" fill="url(#card)" stroke="#1c2233"/>
  <text x="292" y="886" fill="#00e5ff" font-size="15" font-weight="700">ПЛАН · @wirth-planner (Wirth)</text>
  <text x="292" y="908" fill="#9aa3b8" font-size="12.5">индекс путей + сводка для Gate #1</text>
  <line x1="520" y1="922" x2="520" y2="956" stroke="#9aa3b8" stroke-width="3" marker-end="url(#arr)"/>

  <!-- 7. Ревью плана -->
  <rect x="270" y="958" width="500" height="68" rx="12" fill="url(#card)" stroke="#1c2233"/>
  <text x="292" y="986" fill="#00e5ff" font-size="15" font-weight="700">РЕВЬЮ ПЛАНА · @mills (Mills)</text>
  <text x="292" y="1008" fill="#9aa3b8" font-size="12.5">валидаторы + семантика → OK | blocker | escalate</text>

  <rect x="40" y="958" width="190" height="56" rx="10" fill="url(#card)" stroke="#1c2233"/>
  <text x="135" y="982" fill="#e8ecf4" font-size="12.5" text-anchor="middle">@linger (Linger)</text>
  <text x="135" y="1000" fill="#9aa3b8" font-size="11.5" text-anchor="middle">локальный фикс</text>
  <line x1="268" y1="978" x2="234" y2="978" stroke="#9aa3b8" stroke-width="2.5" marker-end="url(#arr)"/>
  <text x="251" y="966" fill="#9aa3b8" font-size="9.5" text-anchor="middle">blocker</text>
  <path d="M135,956 L135,938 L480,938 L480,954" fill="none" stroke="#9aa3b8" stroke-width="2.5" stroke-dasharray="5 5" marker-end="url(#arr)"/>
  <text x="300" y="932" fill="#9aa3b8" font-size="10" text-anchor="middle">фикс → снова @mills</text>

  <rect x="826" y="958" width="168" height="56" rx="10" fill="none" stroke="#ff2d8e"/>
  <text x="910" y="982" fill="#ff2d8e" font-size="12.5" text-anchor="middle">ЭСКАЛАЦИЯ</text>
  <text x="910" y="1000" fill="#9aa3b8" font-size="11" text-anchor="middle">инженеру-дирижёру</text>
  <line x1="772" y1="978" x2="822" y2="978" stroke="#ff2d8e" stroke-width="2.5" stroke-dasharray="5 5" marker-end="url(#arrR)"/>
  <text x="910" y="1030" fill="#ff2d8e" font-size="10" text-anchor="middle">раунд ≥1 с блокером</text>
  <text x="910" y="1044" fill="#ff2d8e" font-size="10" text-anchor="middle">K=2 исчерпан</text>

  <line x1="520" y1="1026" x2="520" y2="1058" stroke="#9aa3b8" stroke-width="3" marker-end="url(#arr)"/>

  <!-- 8. HUMAN GATE #1 -->
  <rect x="250" y="1060" width="540" height="76" rx="14" fill="url(#gate)" stroke="#ffb020"/>
  <text x="276" y="1105" fill="#ffb020" font-size="18">◆</text>
  <text x="520" y="1094" fill="#ffb020" font-size="14" text-anchor="middle" font-weight="700">HUMAN GATE #1 — акцепт плана (человек)</text>
  <text x="520" y="1116" fill="#9aa3b8" font-size="12.5" text-anchor="middle">токен GATE1 APPROVE → .agent/gates/gate1.approved</text>
  <path d="M790,1082 L810,1082 L810,890 L774,890" fill="none" stroke="#9aa3b8" stroke-width="2.5" stroke-dasharray="5 5" marker-end="url(#arr)"/>
  <text x="812" y="1072" fill="#9aa3b8" font-size="10" text-anchor="middle">доработать</text>
  <line x1="520" y1="1136" x2="520" y2="1168" stroke="#9aa3b8" stroke-width="3" marker-end="url(#arr)"/>

  <!-- 9. Ветка -->
  <rect x="270" y="1170" width="500" height="64" rx="12" fill="url(#card)" stroke="#1c2233"/>
  <text x="292" y="1198" fill="#00e5ff" font-size="15" font-weight="700">ВЕТКА · @git-hand mode=start (Torvalds)</text>
  <text x="292" y="1220" fill="#9aa3b8" font-size="12.5">ветка type/slug от свежего транка · на транке кода не пишем</text>
  <line x1="520" y1="1234" x2="520" y2="1268" stroke="#9aa3b8" stroke-width="3" marker-end="url(#arr)"/>

  <!-- 10. Реализация -->
  <rect x="270" y="1270" width="500" height="82" rx="12" fill="url(#card)" stroke="#c6ff3a"/>
  <text x="292" y="1298" fill="#c6ff3a" font-size="15" font-weight="700">РЕАЛИЗАЦИЯ по тикетам</text>
  <text x="292" y="1320" fill="#e8ecf4" font-size="12.5">@wirth-tester (Wirth) — компонентные RED</text>
  <text x="292" y="1339" fill="#e8ecf4" font-size="12.5">@hughes / @hughes-rework (Hughes) — модули</text>
  <line x1="520" y1="1352" x2="520" y2="1386" stroke="#9aa3b8" stroke-width="3" marker-end="url(#arr)"/>

  <!-- 11. validate-layout -->
  <rect x="270" y="1388" width="500" height="60" rx="12" fill="url(#card)" stroke="#1c2233"/>
  <text x="292" y="1414" fill="#00e5ff" font-size="14.5" font-weight="700">validate-layout — раскладка кода</text>
  <text x="292" y="1434" fill="#9aa3b8" font-size="12.5">clean → дальше · leak → @linger</text>

  <rect x="40" y="1388" width="200" height="76" rx="10" fill="none" stroke="#ff2d8e"/>
  <text x="140" y="1412" fill="#ff2d8e" font-size="12.5" text-anchor="middle">@linger (Linger) — фикс</text>
  <text x="140" y="1430" fill="#9aa3b8" font-size="11" text-anchor="middle">предохранитель K=2</text>
  <text x="140" y="1448" fill="#9aa3b8" font-size="11" text-anchor="middle">K=2 исчерпан → эскалация</text>
  <line x1="268" y1="1418" x2="246" y2="1418" stroke="#ff2d8e" stroke-width="2.5" marker-end="url(#arrR)"/>
  <text x="258" y="1406" fill="#ff2d8e" font-size="9.5" text-anchor="middle">leak</text>
  <path d="M140,1386 L140,1368 L440,1368 L440,1356" fill="none" stroke="#ff2d8e" stroke-width="2.5" stroke-dasharray="5 5" marker-end="url(#arrR)"/>
  <text x="300" y="1362" fill="#ff2d8e" font-size="10" text-anchor="middle">фикс → повтор тикета</text>
  <line x1="520" y1="1448" x2="520" y2="1484" stroke="#9aa3b8" stroke-width="3" marker-end="url(#arr)"/>

  <!-- 12. DoD -->
  <rect x="270" y="1486" width="500" height="68" rx="12" fill="url(#card)" stroke="#1c2233"/>
  <text x="292" y="1514" fill="#00e5ff" font-size="15" font-weight="700">DoD-ПРИЁМКА · @fagan (Fagan)</text>
  <text x="292" y="1536" fill="#9aa3b8" font-size="12.5">сборка / тесты / README + инвариант веса · снимает @wip</text>
  <path d="M268,1518 C210,1518 190,1500 190,1470" fill="none" stroke="#ff2d8e" stroke-width="2.5" stroke-dasharray="5 5" marker-end="url(#arrR)"/>
  <text x="218" y="1500" fill="#ff2d8e" font-size="9.5" text-anchor="middle">FAIL</text>
  <line x1="520" y1="1554" x2="520" y2="1590" stroke="#9aa3b8" stroke-width="3" marker-end="url(#arr)"/>

  <!-- 13. Терминальный git + CI -->
  <rect x="270" y="1592" width="500" height="82" rx="12" fill="url(#card)" stroke="#00e5ff"/>
  <text x="292" y="1620" fill="#00e5ff" font-size="15" font-weight="700">ТЕРМИНАЛ · @git-hand mode=terminal (Torvalds)</text>
  <text x="292" y="1642" fill="#e8ecf4" font-size="12.5">commit → push → PR (вес в заголовке) → CI</text>
  <text x="292" y="1661" fill="#9aa3b8" font-size="12">component · contract (pinout) · lint · security-scan · RRA-утилиты</text>
  <path d="M268,1636 C150,1636 108,1560 108,1470" fill="none" stroke="#ff2d8e" stroke-width="2.5" stroke-dasharray="5 5" marker-end="url(#arrR)"/>
  <text x="152" y="1548" fill="#ff2d8e" font-size="10" text-anchor="middle">ci=red</text>
  <line x1="520" y1="1674" x2="520" y2="1706" stroke="#9aa3b8" stroke-width="3" marker-end="url(#arr)"/>

  <!-- 14. HUMAN GATE #2 -->
  <rect x="250" y="1708" width="540" height="76" rx="14" fill="url(#gate)" stroke="#ffb020"/>
  <text x="276" y="1753" fill="#ffb020" font-size="18">◆</text>
  <text x="520" y="1742" fill="#ffb020" font-size="14" text-anchor="middle" font-weight="700">HUMAN GATE #2 — мерж (человек)</text>
  <text x="520" y="1764" fill="#9aa3b8" font-size="12.5" text-anchor="middle">токен GATE2 APPROVE → мерж в транк</text>
  <line x1="520" y1="1784" x2="520" y2="1818" stroke="#9aa3b8" stroke-width="3" marker-end="url(#arr)"/>

  <!-- 15. Закрытие прогона -->
  <rect x="230" y="1820" width="580" height="98" rx="12" fill="url(#card)" stroke="#c6ff3a"/>
  <text x="252" y="1850" fill="#c6ff3a" font-size="15" font-weight="700">ЗАКРЫТИЕ ПРОГОНА · @ledger (Rochkind) → close-run.mjs</text>
  <text x="252" y="1874" fill="#e8ecf4" font-size="12.5">пруф мерджа → тег (semver-bump) → docs/changes/LEDGER.md</text>
  <text x="252" y="1896" fill="#9aa3b8" font-size="12.5">→ атомарный вайп .agent/ — прогон закрыт</text>
  <path d="M810,1876 L1006,1876 L1006,2334 L736,2334" fill="none" stroke="#c6ff3a" stroke-width="2.5" marker-end="url(#arrG)"/>
  <text x="996" y="2090" fill="#c6ff3a" font-size="11" text-anchor="middle" transform="rotate(-90 996 2090)">no-bump (chore): тега нет → выката нет</text>
  <line x1="520" y1="1918" x2="520" y2="1952" stroke="#9aa3b8" stroke-width="3" marker-end="url(#arr)"/>
  <text x="536" y="1944" fill="#9aa3b8" font-size="10.5">тег</text>

  <!-- 16. Канареечный релиз -->
  <rect x="130" y="1954" width="780" height="204" rx="16" fill="#0b0d14" stroke="#ff2d8e"/>
  <text x="156" y="1984" fill="#ff2d8e" font-size="15" font-weight="700">КАНАРЕЕЧНЫЙ РЕЛИЗ ПРЯМО В ПРОД · @michtom (Michtom)</text>
  <text x="156" y="2006" fill="#9aa3b8" font-size="12.5">вариативная среда: VM / контейнер / serverless · за фиче-тогглом</text>

  <g font-size="13" text-anchor="middle">
    <rect x="156" y="2026" width="96" height="32" rx="16" fill="none" stroke="#c6ff3a"/><text x="204" y="2047" fill="#c6ff3a">1%</text>
    <rect x="278" y="2026" width="96" height="32" rx="16" fill="none" stroke="#c6ff3a"/><text x="326" y="2047" fill="#c6ff3a">5%</text>
    <rect x="400" y="2026" width="96" height="32" rx="16" fill="none" stroke="#c6ff3a"/><text x="448" y="2047" fill="#c6ff3a">25%</text>
    <rect x="522" y="2026" width="96" height="32" rx="16" fill="none" stroke="#c6ff3a"/><text x="570" y="2047" fill="#c6ff3a">100%</text>
    <line x1="252" y1="2042" x2="276" y2="2042" stroke="#9aa3b8" stroke-width="3" marker-end="url(#arr)"/>
    <line x1="374" y1="2042" x2="398" y2="2042" stroke="#9aa3b8" stroke-width="3" marker-end="url(#arr)"/>
    <line x1="496" y1="2042" x2="520" y2="2042" stroke="#9aa3b8" stroke-width="3" marker-end="url(#arr)"/>
  </g>

  <text x="660" y="2040" fill="#00e5ff" font-size="13" font-weight="700">4 золотых сигнала</text>
  <text x="660" y="2058" fill="#9aa3b8" font-size="11.5">Latency · Traffic · Errors · Saturation</text>

  <g font-size="11.5" text-anchor="middle">
    <rect x="150" y="2078" width="176" height="32" rx="7" fill="none" stroke="#c6ff3a"/><text x="238" y="2099" fill="#c6ff3a">GREEN → расширить</text>
    <rect x="344" y="2078" width="168" height="32" rx="7" fill="none" stroke="#ffb020"/><text x="428" y="2099" fill="#ffb020">YELLOW → держать</text>
    <rect x="530" y="2078" width="232" height="32" rx="7" fill="none" stroke="#ff2d8e"/><text x="646" y="2099" fill="#ff2d8e">RED → откат (тоггл OFF)</text>
  </g>
  <text x="156" y="2136" fill="#9aa3b8" font-size="11">vs baseline · SLO + guardrail · «нет данных ≠ зелено» → эскалация инженеру-дирижёру</text>
  <line x1="520" y1="2158" x2="520" y2="2192" stroke="#9aa3b8" stroke-width="3" marker-end="url(#arr)"/>

  <!-- 17. HUMAN GATE #3 -->
  <rect x="230" y="2194" width="580" height="76" rx="14" fill="url(#gate)" stroke="#ffb020"/>
  <text x="256" y="2239" fill="#ffb020" font-size="18">◆</text>
  <text x="520" y="2228" fill="#ffb020" font-size="14" text-anchor="middle" font-weight="700">HUMAN GATE #3 — приёмка прод-релиза (человек)</text>
  <text x="520" y="2250" fill="#9aa3b8" font-size="12.5" text-anchor="middle">100 % и стабильно · решение оператора</text>
  <line x1="520" y1="2270" x2="520" y2="2304" stroke="#9aa3b8" stroke-width="3" marker-end="url(#arr)"/>

  <!-- 18. Готово -->
  <rect x="310" y="2306" width="420" height="52" rx="26" fill="none" stroke="#c6ff3a"/>
  <text x="520" y="2338" fill="#c6ff3a" font-size="14" text-anchor="middle">Фича принята · тоггл → cleanup-тикет</text>
</svg>
